<svg xmlns="http://www.w3.org/2000/svg" width="1200" height="630" viewBox="0 0 1200 630" role="img" aria-labelledby="title desc">
  <title id="title">Side Hustle Stephen</title>
  <desc id="desc">Simple business packs, scripts, playbooks, and downloadable assets for nine dollars per month.</desc>
  <defs>
    <linearGradient id="bg" x1="0" y1="0" x2="1" y2="1">
      <stop offset="0" stop-color="#f9fbff"/>
      <stop offset="0.48" stop-color="#eef7f4"/>
      <stop offset="1" stop-color="#fff2e8"/>
    </linearGradient>
    <linearGradient id="panel" x1="0" y1="0" x2="1" y2="1">
      <stop offset="0" stop-color="#ffffff" stop-opacity="0.84"/>
      <stop offset="1" stop-color="#ffffff" stop-opacity="0.48"/>
    </linearGradient>
    <filter id="shadow" x="-20%" y="-20%" width="140%" height="140%">
      <feDropShadow dx="0" dy="28" stdDeviation="28" flood-color="#172033" flood-opacity="0.16"/>
    </filter>
    <pattern id="grid" width="48" height="48" patternUnits="userSpaceOnUse">
      <path d="M48 0H0V48" fill="none" stroke="#203047" stroke-opacity="0.06" stroke-width="1"/>
    </pattern>
  </defs>
  <rect width="1200" height="630" fill="url(#bg)"/>
  <rect width="1200" height="630" fill="url(#grid)"/>
  <circle cx="1020" cy="110" r="190" fill="#ff6a2a" opacity="0.18"/>
  <circle cx="150" cy="525" r="230" fill="#2eb67d" opacity="0.14"/>
  <rect x="82" y="72" width="1036" height="486" rx="44" fill="url(#panel)" stroke="#fff" stroke-width="2" filter="url(#shadow)"/>
  <rect x="122" y="118" width="304" height="48" rx="24" fill="#07101f" opacity="0.92"/>
  <text x="150" y="150" fill="#fff" font-family="Arial, Helvetica, sans-serif" font-size="21" font-weight="700">SIDE HUSTLE STEPHEN</text>
  <text x="122" y="250" fill="#07101f" font-family="Arial, Helvetica, sans-serif" font-size="68" font-weight="800" letter-spacing="0">
    <tspan x="122" dy="0">Start a simple</tspan>
    <tspan x="122" dy="78">business today.</tspan>
  </text>
  <text x="122" y="386" fill="#29364b" font-family="Arial, Helvetica, sans-serif" font-size="28" font-weight="600">Practical launch packs, prompts, scripts, pricing, and delivery files.</text>
  <g transform="translate(122 448)">
    <rect width="188" height="54" rx="27" fill="#ff6a2a"/>
    <text x="28" y="36" fill="#fff" font-family="Arial, Helvetica, sans-serif" font-size="22" font-weight="800">$9/month</text>
    <rect x="208" width="170" height="54" rx="27" fill="#fff" fill-opacity="0.76" stroke="#dfe7ef"/>
    <text x="236" y="36" fill="#07101f" font-family="Arial, Helvetica, sans-serif" font-size="22" font-weight="800">10 packs</text>
    <rect x="398" width="170" height="54" rx="27" fill="#fff" fill-opacity="0.76" stroke="#dfe7ef"/>
    <text x="426" y="36" fill="#07101f" font-family="Arial, Helvetica, sans-serif" font-size="22" font-weight="800">61 assets</text>
  </g>
  <g transform="translate(842 184)">
    <rect width="246" height="292" rx="30" fill="#ffffff" fill-opacity="0.78" stroke="#ffffff" stroke-width="2"/>
    <rect x="28" y="34" width="190" height="34" rx="17" fill="#ff6a2a" opacity="0.92"/>
    <rect x="28" y="92" width="148" height="18" rx="9" fill="#07101f" opacity="0.82"/>
    <rect x="28" y="130" width="188" height="14" rx="7" fill="#5c6a7b" opacity="0.42"/>
    <rect x="28" y="158" width="164" height="14" rx="7" fill="#5c6a7b" opacity="0.36"/>
    <rect x="28" y="204" width="190" height="48" rx="24" fill="#07101f"/>
    <path d="M63 227h108m0 0-19-18m19 18-19 18" fill="none" stroke="#fff" stroke-width="8" stroke-linecap="round" stroke-linejoin="round"/>
  </g>
</svg>
