<svg xmlns="http://www.w3.org/2000/svg" viewBox="0 0 600 600" fill="none" shape-rendering="auto" aria-hidden="true"><metadata xmlns:rdf="http://www.w3.org/1999/02/22-rdf-syntax-ns#" xmlns:xsi="http://www.w3.org/2001/XMLSchema-instance" xmlns:dc="http://purl.org/dc/elements/1.1/" xmlns:dcterms="http://purl.org/dc/terms/"><rdf:RDF><rdf:Description><dc:title>Lorelei Neutral</dc:title><dc:creator>Lisa Wischofsky</dc:creator><dc:source xsi:type="dcterms:URI">https://www.figma.com/community/file/1198749693280469639</dc:source><dcterms:license xsi:type="dcterms:URI">https://creativecommons.org/publicdomain/zero/1.0/</dcterms:license><dc:rights>Remix of “Lorelei Neutral” (https://www.figma.com/community/file/1198749693280469639) by “Lisa Wischofsky”, licensed under “CC0 1.0” (https://creativecommons.org/publicdomain/zero/1.0/)</dc:rights></rdf:Description></rdf:RDF></metadata><defs><g id="eyebrows-variant04-055b0931"><path d="M315 23q6 2 9 8l-35 13-16 9q-10 6-22 8l-13 3-7 8-6 12-3-3q-2-9 2-16 3-10 8-18l9-10q8-4 15 0v6l25-13q16-9 34-7m-194 3c13 2 31 0 44 6q12 6 17 20l-1 3q-5 5-14 2l-9-8-8-2q-12-3-25-2c-12-1-23-7-36-8l-27-4-4-2q14-5 28-6 18-1 35 1" fill="#000000"/><path d="M180 29q8-3 16 2 7 6 10 15 1-6 5-11 11 4 13 14 4 9 0 16c-2 4-8 8-12 4q-6-8-6-17 0 5-5 9-5 3-8-2-4-5-6-12l-7-15z" fill="#000000"/></g><g id="eyes-variant09-055b0931"><path d="M315 0q11 0 18 10 7 11 7 24 0 7-2 12c-3 4-10 4-12 0q-3-5-3-12 0-13-10-18 14 23 7 50-3 13-13 22-8 6-17 4-9-3-13-11-7-12-6-26l-6 15-4 9q-5-4-4-10 0-14 6-26 9-22 28-35 11-8 24-8M100 5q22 0 40 14 22 16 27 42 2 6 0 13-1 3-3 2l-7-11-10-16q1 22-11 39-11 13-26 14-18 0-27-15-12-20-6-41 3-13 13-24l-13 6q-10 7-18 16l-5 6q-6 5-12 0-5-5-1-12 8-13 22-22Q79 5 100 5" fill="#000000"/><path d="M303 35q2 10-3 19l-4 10q-2 3-6 1l-3-7q-5-10-5-19 2-4 6-4 3 1 5 5 1-5 4-7 4-3 6 2m-183 2q5 0 6 6 0 11-3 22-1 6-6 11-4 1-5-2l-10-16-4-7q-1-7 3-12 3-3 7-1 4 3 5 6 1-6 7-7" fill="white"/></g><g id="mouth-happy12-055b0931"><path d="M46 33q15-2 30 1c16 1 31 6 47 6l25 1 23-3 33-3q10 1 16 6 7 6 6 14-3 11-12 18-11 8-24 13-13 7-28 4-5-1-8-6c8-4 15-3 24-5q18-4 33-15 5-5 7-11-1-5-5-7-9-3-19-2l-48 7-28-1-42-6-27-3-6 1q-2 6 2 11 7 9 19 13 10 6 19 8 6 1 8 5l3 21q3 4 7 5c6-5 4-11 8-17q2-7 9-8 13-1 26 3l6 2q-1 4-5 4-14 0-26-3-4 1-5 4c-3 5-2 11-6 16q-3 4-8 4-7-1-10-7c-5-6-4-13-6-20l-19-6-17-8q-9-6-13-16-2-6 1-14 3-6 10-6" fill="#000000"/></g><g id="nose-variant04-055b0931"><path d="M39 67a37 37 0 0 1 19 29q-1 15-13 22-9 5-18 7-4 2-8 0-2-3 1-6l21-12q5-3 5-9c0-10-5-17-7-26z" fill="#000000"/></g><clipPath id="clip-055b0931"><rect width="600" height="600" rx="0" ry="0"/></clipPath></defs><g clip-path="url(#clip-055b0931)"><rect width="600" height="600" fill="#dbeafe"/><use transform="translate(115 124)" href="#eyebrows-variant04-055b0931"/><use transform="translate(109 229)" href="#eyes-variant09-055b0931"/><use transform="translate(173 400)" href="#mouth-happy12-055b0931"/><use transform="translate(309 271)" href="#nose-variant04-055b0931"/></g></svg>