<svg xmlns="http://www.w3.org/2000/svg" viewBox="0 0 600 600" fill="none" shape-rendering="auto" aria-hidden="true"><metadata xmlns:rdf="http://www.w3.org/1999/02/22-rdf-syntax-ns#" xmlns:xsi="http://www.w3.org/2001/XMLSchema-instance" xmlns:dc="http://purl.org/dc/elements/1.1/" xmlns:dcterms="http://purl.org/dc/terms/"><rdf:RDF><rdf:Description><dc:title>Lorelei Neutral</dc:title><dc:creator>Lisa Wischofsky</dc:creator><dc:source xsi:type="dcterms:URI">https://www.figma.com/community/file/1198749693280469639</dc:source><dcterms:license xsi:type="dcterms:URI">https://creativecommons.org/publicdomain/zero/1.0/</dcterms:license><dc:rights>Remix of “Lorelei Neutral” (https://www.figma.com/community/file/1198749693280469639) by “Lisa Wischofsky”, licensed under “CC0 1.0” (https://creativecommons.org/publicdomain/zero/1.0/)</dc:rights></rdf:Description></rdf:RDF></metadata><defs><g id="eyebrows-variant04-0e05bf0c"><path d="M315 23q6 2 9 8l-35 13-16 9q-10 6-22 8l-13 3-7 8-6 12-3-3q-2-9 2-16 3-10 8-18l9-10q8-4 15 0v6l25-13q16-9 34-7m-194 3c13 2 31 0 44 6q12 6 17 20l-1 3q-5 5-14 2l-9-8-8-2q-12-3-25-2c-12-1-23-7-36-8l-27-4-4-2q14-5 28-6 18-1 35 1" fill="#000000"/><path d="M180 29q8-3 16 2 7 6 10 15 1-6 5-11 11 4 13 14 4 9 0 16c-2 4-8 8-12 4q-6-8-6-17 0 5-5 9-5 3-8-2-4-5-6-12l-7-15z" fill="#000000"/></g><g id="eyes-variant15-0e05bf0c"><path d="M325 10q11 3 16 14 3 7-4 11t-12-3q-4-6-11-8-7-1-13 1l4 5q6 10 5 22 0 10-4 20l9-4q1 5-2 9-8 11-20 12-13 3-25-3-5-5-5-13-2-3-1-6 1-15 9-27 11-17 29-26 12-6 25-4M117 56q21 3 43 11l8 3q4 7 0 13-5 3-11 2h-45q-21 1-41-2-4 0-7-3l-14 2q-4 2-7-1-3-4 1-8 4-3 9-4l27-5 9-1-16-1-19-1q-3 0-3-3 0-2 3-3l15-2q24-2 48 3" fill="#000000"/></g><g id="mouth-happy15-0e05bf0c"><path d="M235 29q5 1 6 5 3 10-5 19c-5 4-13 8-16 15q-4 6-11 10-10 7-24 7-14-3-26-8l-33-4-9-1q-6 2-13 1t-13-3c-10-1-17 5-26 4q-9-3-10-13 0-9 5-18l-13 6q0-4 3-7 5-6 13-8 3-1 8 1 4 3 2 8-5 9-5 18 2 4 8 3 7-3 16-2l10 2 19-2 21 3 24 6c7 2 13 7 21 5q9-2 16-9 5-5 8-11l15-10 5-5 3-9z" fill="#000000"/></g><g id="nose-variant04-0e05bf0c"><path d="M39 67a37 37 0 0 1 19 29q-1 15-13 22-9 5-18 7-4 2-8 0-2-3 1-6l21-12q5-3 5-9c0-10-5-17-7-26z" fill="#000000"/></g><clipPath id="clip-0e05bf0c"><rect width="600" height="600" rx="0" ry="0"/></clipPath></defs><g clip-path="url(#clip-0e05bf0c)"><rect width="600" height="600" fill="#f8fafc"/><use transform="translate(115 124)" href="#eyebrows-variant04-0e05bf0c"/><use transform="translate(109 229)" href="#eyes-variant15-0e05bf0c"/><use transform="translate(173 400)" href="#mouth-happy15-0e05bf0c"/><use transform="translate(309 271)" href="#nose-variant04-0e05bf0c"/></g></svg>