<svg xmlns="http://www.w3.org/2000/svg" viewBox="0 0 600 600" fill="none" shape-rendering="auto" aria-hidden="true"><metadata xmlns:rdf="http://www.w3.org/1999/02/22-rdf-syntax-ns#" xmlns:xsi="http://www.w3.org/2001/XMLSchema-instance" xmlns:dc="http://purl.org/dc/elements/1.1/" xmlns:dcterms="http://purl.org/dc/terms/"><rdf:RDF><rdf:Description><dc:title>Lorelei Neutral</dc:title><dc:creator>Lisa Wischofsky</dc:creator><dc:source xsi:type="dcterms:URI">https://www.figma.com/community/file/1198749693280469639</dc:source><dcterms:license xsi:type="dcterms:URI">https://creativecommons.org/publicdomain/zero/1.0/</dcterms:license><dc:rights>Remix of “Lorelei Neutral” (https://www.figma.com/community/file/1198749693280469639) by “Lisa Wischofsky”, licensed under “CC0 1.0” (https://creativecommons.org/publicdomain/zero/1.0/)</dc:rights></rdf:Description></rdf:RDF></metadata><defs><g id="eyebrows-variant11-035c3d78"><path d="M135 18q16 1 27 10 5 5 6 11-16-7-33-5-9 1-17 6C95 52 76 69 53 82L33 96l-11 10q-2-6 1-14 7-14 20-23 11-10 24-17l40-27q13-7 28-7m205 35q-8 4-17 4-8 1-14 7l-24 23q-12 16-28 25l-8 2-6 1c-4 5-4 13-9 17q-3-1-2-3v-12q1-9 7-17l14-7 14-11 23-18q10-8 21-12 15-5 29 1" fill="#000000"/></g><g id="eyes-variant08-035c3d78"><path d="M328 22q5-1 10 3 6 6-1 13l-10 2-18 4q0 11-5 22-3 7-10 11-9 5-16-3l-3-9-9 9q-5 1-5-3 2-9 8-16a91 91 0 0 1 42-31zM86 35q15 1 31 5 22 5 40 18 5 3 9 10 1 3-2 3-6-2-11-6-17-7-35-9-1 14-10 25-5 7-14 7-13-2-21-11-7-11-7-23l-14 3q-4 3-9 2-8-3-6-11 2-5 8-8 20-6 41-5" fill="#000000"/></g><g id="mouth-happy04-035c3d78"><path d="m213 22-18 14q-16 11-36 19-5 3-10 3l-17-2h-23l-23-1q-9-2-15-9H58q-7 0-4-7 4-4 10-6 8-3 15 1l7 7 5 2 46 3q7 3 15 3l14-6 38-19q4-2 9-2" fill="#000000"/></g><g id="nose-variant06-035c3d78"><path d="M54 97q0 13-10 23-5 5-14 6-9-1-19-5-6-2-11-6l5-4c9-1 17 3 25 4q6-1 9-6 7-8 15-12" fill="#000000"/></g><clipPath id="clip-035c3d78"><rect width="600" height="600" rx="0" ry="0"/></clipPath></defs><g clip-path="url(#clip-035c3d78)"><rect width="600" height="600" fill="#eff6ff"/><use transform="translate(115 124)" href="#eyebrows-variant11-035c3d78"/><use transform="translate(109 229)" href="#eyes-variant08-035c3d78"/><use transform="translate(173 400)" href="#mouth-happy04-035c3d78"/><use transform="translate(309 271)" href="#nose-variant06-035c3d78"/></g></svg>