<svg xmlns="http://www.w3.org/2000/svg" viewBox="0 0 600 600" fill="none" shape-rendering="auto" aria-hidden="true"><metadata xmlns:rdf="http://www.w3.org/1999/02/22-rdf-syntax-ns#" xmlns:xsi="http://www.w3.org/2001/XMLSchema-instance" xmlns:dc="http://purl.org/dc/elements/1.1/" xmlns:dcterms="http://purl.org/dc/terms/"><rdf:RDF><rdf:Description><dc:title>Lorelei Neutral</dc:title><dc:creator>Lisa Wischofsky</dc:creator><dc:source xsi:type="dcterms:URI">https://www.figma.com/community/file/1198749693280469639</dc:source><dcterms:license xsi:type="dcterms:URI">https://creativecommons.org/publicdomain/zero/1.0/</dcterms:license><dc:rights>Remix of “Lorelei Neutral” (https://www.figma.com/community/file/1198749693280469639) by “Lisa Wischofsky”, licensed under “CC0 1.0” (https://creativecommons.org/publicdomain/zero/1.0/)</dc:rights></rdf:Description></rdf:RDF></metadata><defs><g id="eyebrows-variant13-8f98ce4d"><path d="m327 63 2 2-14 14-21 15-27 18q-6 5-13 7l-8 1-11 20h-2q-2-10 1-20 2-10 8-16l10-4 31-21q12-9 26-13zM10 72q15 0 28 2l26 7 15 1 24 2q11 4 23 6l34 11 3-5q3-2 5 1 7 13 11 25 2 8-6 9-7 0-12-6l-11-9-30-9-20-5-15-3-15-4-24-9c-10-4-20-4-29-9q-5-1-7-5" fill="#000000"/></g><g id="eyes-variant14-8f98ce4d"><path d="M330 11q9 4 13 12 4 12 1 25-2 7-9 8-9-1-9-10c1-8 4-15 1-23q0-3-4-4-9 0-17 5l4 8v21q-2 12-10 19l-10 8q-8 1-13-5-4-8-3-17l-5 9-4 3v-9a95 95 0 0 1 44-49q11-4 21-1m-215 6q27 10 46 34 5 6 7 14 1 4-1 6-6 0-8-5l-6 18q-4 6-12 10t-18 1q-9-5-14-14-7-14-4-29 2-12 8-21-20-9-42-2-14 5-18 21c-2 4 0 11-4 14q-5 6-11 1-5-5-3-11 2-19 16-30 8-6 18-9 24-6 46 2" fill="#000000"/></g><g id="mouth-happy01-8f98ce4d"><path d="m216 17-6 8q-11 12-23 22-12 11-27 17-17 5-35 2-24-1-45-12l-12-7q-2-2 0-5 5-1 9 1 18 7 37 10 26 4 50-3 12-3 21-11l23-17z" fill="#000000"/></g><g id="nose-variant02-8f98ce4d"><path d="M48 108v1q-6 13-20 18-5 2-9-1v-4q10-8 24-12z" fill="#000000"/></g><clipPath id="clip-8f98ce4d"><rect width="600" height="600" rx="0" ry="0"/></clipPath></defs><g clip-path="url(#clip-8f98ce4d)"><rect width="600" height="600" fill="#dbeafe"/><use transform="translate(115 124)" href="#eyebrows-variant13-8f98ce4d"/><use transform="translate(109 229)" href="#eyes-variant14-8f98ce4d"/><use transform="translate(173 400)" href="#mouth-happy01-8f98ce4d"/><use transform="translate(309 271)" href="#nose-variant02-8f98ce4d"/></g></svg>